<svg xmlns="http://www.w3.org/2000/svg" width="134" height="151" viewBox="0 0 134 151">
    <g fill="none" fill-rule="evenodd" transform="translate(.134 .552)">
        <path fill="#252533" fill-rule="nonzero" d="M53.029 107.52L9.128 123.753c-3.011 1.113-6.232-.39-7.192-3.363l-.068-.21c-2.755-8.528 2.021-18.03 10.661-21.226l26.386-9.756a50.508 50.508 0 0 1 15.01-3.093l.076-.004-.972 21.419z"/>
        <path fill="#252533" fill-rule="nonzero" d="M130.717 132.805l-13.856-25.578c-9.548-17.6-28.674-21.603-38.757-21.603H61.9c-18.779 0-28.76 15.267-28.763 34.104v55.145h73.859V149.52c3.277 3.518 7.406 5.537 11.18 5.533.274 0 5.602-.013 5.872-.035a9.28 9.28 0 0 0 3.722-1.095l.219-.12c6.018-3.274 7.239-12.677 2.728-20.998z"/>
        <path fill="#131516" fill-rule="nonzero" d="M107.934 128.234h5.47c3.868 0 9.873.936 12.679 4.82l-16.547 4.953-2.536-8.3.934-1.473z"/>
        <g fill-rule="nonzero">
            <path fill="#FFF" d="M92.822 174.642H46.955v-69.455c0-9.95 8.04-18.012 17.96-18.012h9.947c9.92 0 17.96 8.063 17.96 18.012v69.455z"/>
            <path fill="#CEBABA" d="M54.361 101.793s-.326 63.694 1.94 72.346c2.24 8.553-7.226 2.2-7.226 2.2l1.153-70.654 4.133-3.892zM85.579 101.793s.325 63.694-1.94 72.346c-2.24 8.553 7.225 2.2 7.225 2.2l-1.148-70.654-4.137-3.892zM78.34 166.595l-6.216-52.61a3.55 3.55 0 0 0 .707-.765l3.054-4.498a3.946 3.946 0 0 0-1.405-5.7l-.085-.047a9.567 9.567 0 0 0-9.013 0l-.085.047a3.95 3.95 0 0 0-1.405 5.7l3.054 4.498c.231.34.51.623.818.85L61.56 166.6c-.055.365.06.734.313.996l7.218 7.578c.467.49 1.246.49 1.709 0l7.217-7.578c.257-.266.373-.635.322-1z"/>
            <path fill="#CEBABA" d="M69.953 87.179c-12.765 0-26.515 10.434-10.383 26.342l10.383-11.431 10.383 11.43C96.463 97.619 82.717 87.18 69.953 87.18z"/>
            <path fill="#F93E3E" d="M75.945 104.998l-3.058 4.498c-1.41 2.079-4.468 2.079-5.877 0l-3.054-4.498a3.95 3.95 0 0 1 1.4-5.7l.086-.044a9.583 9.583 0 0 1 9.008 0l.086.043a3.945 3.945 0 0 1 1.41 5.701z"/>
            <path fill="#BA3131" d="M75.945 104.998s-3.041-3.96-6.06-3.96c-3.02 0-5.933 3.96-5.933 3.96a3.95 3.95 0 0 1 1.4-5.7l.086-.044a9.583 9.583 0 0 1 9.008 0l.086.043a3.943 3.943 0 0 1 1.413 5.701z"/>
            <path fill="#CEBABA" d="M91.383 134.88v23.025h-3.624v-2.569s-.304.035-.831.086c-.197.022-.424.039-.681.065-.086.008-.171.012-.266.021-.18.017-.372.03-.578.047l-.308.026c-.317.026-.656.047-1.011.073-.236.013-.48.03-.728.039-.497.03-1.011.056-1.547.073a46.928 46.928 0 0 1-2.433.047c-.274 0-.54-.004-.81-.009l-.526-.012c-.082 0-.159 0-.24-.005-.069 0-.141 0-.214-.004-.077 0-.154-.004-.236-.004h-.013l-3.336-29.633a4.33 4.33 0 0 1 .128-.292c1.366-2.934 3.315-2.543 4.215-2.204.505.19.844.662.887 1.199.102 1.233.214 2.29.338 3.183a8.48 8.48 0 0 0 5.183 6.732l2.998 1.228v-1.104h3.633v-.008z"/>
            <path fill="#252533" d="M108.68 196.348H97.07c-5.701 0-10.323-6.358-10.323-14.197l.308-57.873h21.927l-.304 72.07zM31.907 196.713h9.368c6.498 0 11.767-6.357 11.767-14.197v-58.238H31.907v72.435z"/>
            <g>
                <path fill="#131516" d="M40.063 101.235c-.621 1.409-.107 3.144.972 4.132l6.64 6.066-6.181 5.275c-1.088.928-1.675 2.44-1.551 3.987.471 5.855 4.386 21.771 13.103 38.533l.034-4.046-.71-54.415s-1.47-13.48 15.912-13.48c-.008.004-21.1-2.243-28.22 13.948zM97.91 116.708l-5.966-5.275 6.408-6.066c1.04-.983 1.538-2.719.938-4.132C92.42 85.044 72.056 87.29 72.056 87.29c16.778 0 15.36 13.48 15.36 13.48l-.685 51.644.03 6.817c7.586-15.258 12.19-32.682 12.649-38.533.12-1.55-.446-3.058-1.5-3.99z"/>
                <g fill="#323244">
                    <path d="M41.16 97.97c-.6 1.388-.103 3.093.933 4.064l6.4 5.967-5.959 5.19c-1.049.914-1.614 2.396-1.494 3.917.454 5.756 4.69 21.213 12.032 37.21l-.056-56.808s-1.413-13.256 15.335-13.256c.004.004-20.33-2.204-27.192 13.716zM96.9 113.186l-5.753-5.19 6.177-5.966c1.002-.971 1.482-2.677.904-4.064-6.623-15.92-26.25-13.712-26.25-13.712 16.17 0 14.804 13.256 14.804 13.256l-.055 56.808c7.084-15.997 11.175-31.454 11.616-37.21.116-1.525-.428-3.007-1.443-3.922z"/>
                </g>
            </g>
            <path fill="#FFF" d="M69.953 82.454c-13.266 0-27.547 10.842-10.786 27.368l10.786-11.878 10.785 11.878C97.5 93.296 83.214 82.454 69.953 82.454z"/>
            <path fill="#FFB287" d="M58.268 88.85c0 5.03 4.895 9.107 11.252 9.107 6.352 0 11.505-4.077 11.505-9.107V78.218H58.272V88.85h-.004z"/>
            <path fill="#F58D6C" d="M58.268 88.906c0 2.53 4.895 4.584 11.252 4.584 6.352 0 11.505-2.054 11.505-4.584v-5.353H58.272v5.353h-.004z"/>
            <path fill="#F93E3E" d="M78.023 165.607l-7.218 7.578c-.462.49-1.246.49-1.709 0l-7.218-7.578a1.188 1.188 0 0 1-.312-1l5.782-51.288.339-3.02.128-1.108h4.275l.129 1.108.42 3.767c.004.005.004.005.004.009l1.362 12.063 3.337 29.632.998 8.832c.055.374-.065.74-.317 1.005z"/>
            <g>
                <path fill="#8E3925" d="M100.49 43.332c.128 17.862-8.41 22.716-30.85 22.875-22.44.159-31.218-4.567-31.342-22.433-.128-17.862 8.948-35.006 30.867-35.16 21.9-.156 31.213 18.883 31.324 34.718z"/>
                <path fill="#F58D6C" d="M99.371 47.275c.137 19.422-8.07 42.056-29.701 42.21-21.631.155-30.1-22.359-30.241-41.78-.137-19.421 8.597-32.201 29.723-32.356 21.126-.15 30.082 12.505 30.22 31.926z"/>
                <path fill="#F58D6C" d="M47.61 56.146c1.187 4.764-.788 10.546-4.793 10.791-4.999.305-8.233-3.75-9.09-8.63-.847-4.837 1.449-9.176 5.167-8.26 3.897.966 7.53 1.335 8.716 6.1zM90.685 56.146c-1.187 4.764.788 10.546 4.793 10.791 4.998.305 8.232-3.75 9.09-8.63.847-4.837-1.449-9.176-5.167-8.26-3.902.966-7.53 1.335-8.716 6.1z"/>
                <path fill="#FFB287" d="M97.435 50.686c.124 17.656-11.732 35.307-27.726 35.307-15.995 0-28.087-17.252-28.215-34.907-.125-17.656-3.834-35.527 27.743-35.819 31.578-.292 28.074 17.763 28.198 35.42z"/>
                <path fill="#3A2416" stroke="#3A2416" stroke-width=".597" d="M78.34 50.3c-.017 1.305.698 2.367 1.597 2.37.9.005 1.641-1.052 1.658-2.362.017-1.306-.698-2.367-1.598-2.371-.9 0-1.64 1.057-1.657 2.363zM57.424 50.738c-.017 1.306.698 2.367 1.597 2.371.9.004 1.641-1.052 1.658-2.363.017-1.306-.698-2.367-1.598-2.371-.9-.004-1.64 1.057-1.657 2.363z"/>
                <path fill="#8E3925" d="M53.436 40.14c.06-.022.115-.039.175-.06.309.528.617 1.06.921 1.59 2.052-2.36 5.8-2.57 7.933-.366.853.88 2.193-.468 1.341-1.344-2.818-2.909-7.877-2.776-10.614.365a.959.959 0 0 0 .92 1.59.825.825 0 0 0 .279-.13c.96-.734.017-2.388-.955-1.645zM83.977 41.781a.75.75 0 0 0 .278.129.959.959 0 0 0 .921-1.59c-2.737-3.14-7.792-3.277-10.614-.365-.853.877.488 2.225 1.34 1.345 2.13-2.2 5.882-1.99 7.933.365.309-.528.617-1.061.921-1.59.06.022.116.04.176.06-.972-.734-1.92.916-.955 1.646z"/>
                <path fill="#F58D6C" d="M71.538 60.979c-1.375.554-2.9.545-4.28.039-1.199-.443-1.717 1.482-.526 1.92 1.666.614 3.67.636 5.337-.039 1.17-.472.655-2.401-.531-1.92z"/>
                <path fill="#8E3925" d="M102.768 50.97c-1.585-1.805-3.73-.79-3.74-.649-.282 4.687-.68 5.408-2.047 5.408-1.508 0-1.76-3.131-1.76-5.051 0-9.653.68-17.428-1.221-20.826-3.307-5.911-16.804-1.62-26.309-2.453-8.88-.782-13.279-3.596-14.94-5.095-.806-.726-1.97-.937-2.943-.451-1.988.996-3.513 3.368-4.656 6.383-2.553 6.693-3.269 16.54-3.187 21.415.004.335.013.644.025.928.018.352.013.683-.004.996-.158 3.012-1.726 4.077-2.677.817-.009-.018-.013-.035-.017-.052a17.725 17.725 0 0 1-.064-.236c-.917-3.497-3.397-1.457-3.397-1.457-2.746-21.461 2.283-29.378 7.736-33.734 1.542-1.233 3.122-2.178 4.57-3.068a6.427 6.427 0 0 1-.342-.842c-.917-2.86.27-6.078.27-6.078s2.3 1.946 3.807 1.8C50.827 4.545 54.138.039 54.138.039s2.549 3.015 10.495 4.974c6.58 1.624 8.46.597 15.741 1.731 11.107 1.732 13.013 9.3 13.013 9.3s4.986 3.279 7.3 6.814c2.252 3.45 2.62 10.276 2.655 14.06.026 2.788-.527 14.108-.574 14.052z"/>
                <path fill="#8E3925" d="M38.86 49.165c.286 4.687 1.58 6.56 2.946 6.56.707 0 .146-3.132.146-5.052 0-13.115 2.686-22.802 4.887-26.02l-.792-2.521-6.108 8.218s-.647 14.49-.72 14.777c-.073.293-.36 4.038-.36 4.038z"/>
                <path fill="#AB4D37" d="M54.46 2.015c1.824 6.748 4.073 12.775 11.068 17.243 6.956 4.446 11.715.902 14.846-2.857 3.487-4.188 8.404 3.493 11.955 2.427 2.635-.79 1.221-4.291-.822-6.658 0 0 2.176 3.866-.424 3.888-2.647.021-6.824-6.59-12.778-8.012-6.116-1.46-7.765 8.75-17.142 1.078-6.194-5.069-6.703-7.11-6.703-7.11zM93.884 22.574c-1.627.877.583 6.28 5.569 9.082.535.3 1.165-.215.98-.8-.976-3.122-3.503-9.918-6.549-8.282z" opacity=".6"/>
            </g>
        </g>
        <path fill="#993E39" fill-rule="nonzero" d="M47.79 13c.121.257.233.54.345.841A5.862 5.862 0 0 1 47.79 13z"/>
        <path fill="#68271A" fill-rule="nonzero" d="M50.228 17.88s-3.924.785-6.67-.972c1.542-1.233 3.123-2.178 4.57-3.067 1.089 3.029 2.1 4.038 2.1 4.038z"/>
        <path stroke="#FFB287" stroke-width=".597" d="M78.143 69.648a11.004 11.004 0 0 1-.155.756c-.055.245-.124.511-.21.786-.372 1.22-1.023 2.685-2.154 3.91-1.32 1.421-3.281 2.52-6.22 2.52-2.998 0-4.981-1.142-6.3-2.611-1.08-1.203-1.71-2.625-2.07-3.815-.08-.27-.154-.528-.21-.769-.016-.068-.034-.137-.046-.206-.048-.206-.082-.4-.112-.571a.797.797 0 0 1 .788-.937h15.913a.795.795 0 0 1 .776.937z"/>
        <path fill="#BA3131" fill-rule="nonzero" d="M72.643 114.075c0-.004 0-.004-.005-.009-.377-1.271-1.156-2.285-2.642-2.285-1.238 0-2.1.451-2.648 1.542l.343-3.02s1.23.937 2.236.937c1.007 0 2.292-.937 2.292-.937l.424 3.772z" opacity=".48"/>
        <path fill="#131516" fill-rule="nonzero" d="M106.2 137.87V121.54l6.27 14.988zM31.65 157.579l7.14-36.201s12.2-6.835 8.992-18.506c-3.209-11.672-16.132 4.102-16.132 4.102v50.605z"/>
        <ellipse cx="17.177" cy="118.057" fill="#252533" fill-rule="nonzero" rx="17.082" ry="19.868"/>
        <g fill-rule="nonzero" transform="translate(3.855 82.05)">
            <ellipse cx="13.497" cy="35.69" fill="#131516" rx="13.42" ry="16.049"/>
            <ellipse cx="13.536" cy="30.079" fill="#FFF" rx="11.518" ry="13.94"/>
            <ellipse cx="13.707" cy="29.65" fill="#CEBABA" rx="9.878" ry="11.955"/>
            <path fill="#F58D6C" d="M6.9 8.441L3.989 27.613c-1.26 6.307 2.112 9.554 8.528 9.554h3.774c2.861 0 4.416-1.134 5.337-2.062 1.418-1.422 2.133-4.523 5.337-5.159 5.145-1.018-.145-21.445-.145-21.445L6.9 8.441z"/>
            <path fill="#FFB287" d="M32.25 24.774c0 3.114-.129 5.709-12.73 5.709-4.121 0-3.967.58-3.967-2.96 0-3.544 3.341-6.413 7.462-6.413 4.125-.005 9.235.12 9.235 3.664z"/>
            <path fill="#FFB287" d="M7.29 5.911L4.378 25.083c-1.26 6.306 2.111 9.554 8.528 9.554h5.114c1.303 0 3.646-1.014 4.64-1.856.788-.67 1.901-2.633 3.195-2.633 2.587 0 1.353-24.168 1.353-24.168L7.29 5.91z"/>
            <path fill="#F58D6C" d="M29.149 25.81c-7.115 0-14.975 3.758-14.975 3.758-1.362 0-2.75-1.422-3.53-4.279l1.063-13.519a2.471 2.471 0 0 1 2.467-2.474h22.09a2.471 2.471 0 0 1 2.467 2.474l-3.757 10.276c-.004 1.366 1.29 3.763-5.825 3.763z"/>
            <path fill="#CEBABA" d="M9.505 8.089h3.208s-.141 2.71 3.825 2.71c1.161 0 1.97-.231 2.532-.562.39.099.848.163 1.405.163 3.58 0 3.452-2.444 3.452-2.444s.052-1.04-.415-2.165H11.959a2.477 2.477 0 0 0-2.454 2.298z"/>
            <path fill="#CEBABA" d="M12.32 8.089h3.207s-.14 2.71 3.826 2.71c1.16 0 1.97-.231 2.531-.562.39.099.848.163 1.405.163 3.581 0 3.452-2.444 3.452-2.444s.052-1.04-.415-2.165H14.778a2.478 2.478 0 0 0-2.459 2.298z"/>
            <path fill="#FFB287" d="M27.178 5.804S27.02.842 21.58.902c-5.44.056-5.881 4.902-5.881 4.902h4.964s-.93 1.512 2.532 2.427c3.688.97 3.983-2.427 3.983-2.427z"/>
            <path fill="#F58D6C" d="M25.187 5.804S25.43.842 19.99.902c-5.44.056-6.678 4.902-6.678 4.902h4.964s-.094 1.963 3.453 2.444c3.212.434 3.457-2.444 3.457-2.444z"/>
            <path fill="#FFB287" d="M23.974 5.529S24.25.043 18.23.107c-6.018.065-7.384 5.422-7.384 5.422h5.491s-.034 1.782 3.817 2.706c3.816.91 3.82-2.706 3.82-2.706z"/>
            <path fill="#F58D6C" d="M16.059.39c5.637.044 5.375 5.237 5.375 5.237h.005s.36 2.969-1.594 2.53c-.073-.02-.145-.038-.227-.064-.36-.12-.792-.343-1.306-.704A15.832 15.832 0 0 0 16.68 6.37L16.059.39z"/>
            <path fill="#FFB287" d="M20.41 5.937S20.686.503 14.655.503c-6.978 0-7.342 5.43-7.342 5.43l7.213.004s-.098 2.354 2.056 2.71c4.155.683 3.83-2.71 3.83-2.71z"/>
        </g>
        <path fill="#FFF" fill-rule="nonzero" d="M41.798 108.117h-25.97a2.471 2.471 0 0 1-2.468-2.475V90.315a2.471 2.471 0 0 1 2.467-2.474h25.97a2.471 2.471 0 0 1 2.468 2.474v15.327a2.471 2.471 0 0 1-2.467 2.475z"/>
        <path fill="#F58D6C" fill-rule="nonzero" d="M69.914 74.889c-2.266 0-3.923-1.199-4.022-1.272a1.206 1.206 0 0 1 1.426-1.946c.107.077 2.34 1.633 4.75.18a1.198 1.198 0 0 1 1.65.413 1.205 1.205 0 0 1-.411 1.654c-1.195.722-2.356.97-3.393.97z"/>
        <ellipse cx="20.068" cy="94.937" fill="#DADADA" rx="3.843" ry="3.866"/>
        <rect width="15.371" height="2.577" x="25.619" y="92.789" fill="#F2F2F2" rx="1.289"/>
        <rect width="15.371" height="1.718" x="25.619" y="96.226" fill="#F2F2F2" rx=".859"/>
        <rect width="15.371" height="1.718" x="25.619" y="98.803" fill="#F2F2F2" rx=".859"/>
        <rect width="23.911" height="1.718" x="17.079" y="102.24" fill="#F2F2F2" rx=".859"/>
    </g>
</svg>
